<svg width="26" height="26" viewBox="0 0 26 26" fill="none" xmlns="http://www.w3.org/2000/svg">
<path d="M22.6369 25.0001H3.16421C2.86539 25.0018 2.57649 24.8988 2.35327 24.711C2.13005 24.5231 1.98834 24.2638 1.95547 23.983L1.00058 10.4344C0.995546 10.283 1.02336 10.1323 1.08232 9.9915C1.14129 9.85069 1.23013 9.72278 1.34339 9.61569C1.45666 9.50861 1.59193 9.4246 1.74086 9.36885C1.88979 9.3131 2.04922 9.2868 2.20931 9.29156H23.7913C24.1118 9.29156 24.4193 9.41197 24.646 9.6263C24.8727 9.84062 25 10.1313 25 10.4344L23.8457 23.9944C23.81 24.2731 23.6671 24.5297 23.4442 24.7152C23.2212 24.9007 22.9339 25.0021 22.6369 25.0001V25.0001Z" stroke="black" stroke-width="2" stroke-linecap="round" stroke-linejoin="round"/>
<path d="M6.95361 13V6.71428C6.95361 5.19876 7.59037 3.7453 8.72378 2.67367C9.85719 1.60203 11.3944 1 12.9973 1C14.6002 1 16.1374 1.60203 17.2708 2.67367C18.4042 3.7453 19.041 5.19876 19.041 6.71428V13" stroke="black" stroke-width="2" stroke-linecap="round" stroke-linejoin="round"/>
</svg>
