<svg width="24" height="24" viewBox="0 0 24 24" fill="none" xmlns="http://www.w3.org/2000/svg">
<path d="M5.64682 12.2492L2.51794 11.519C2.42922 11.4978 2.34572 11.4589 2.27247 11.4046C2.19923 11.3502 2.13778 11.2816 2.09183 11.2028C2.04587 11.1241 2.01639 11.0368 2.00514 10.9463C1.9939 10.8558 2.00114 10.764 2.02642 10.6763L3.75938 4.83425C3.80108 4.67366 3.90124 4.53444 4.04025 4.44385L8.6128 2.09297C8.72352 2.02871 8.84997 1.99661 8.97793 2.00028H15.0194C15.1491 2.00106 15.2759 2.03909 15.3846 2.10983L19.9599 4.4607C20.0982 4.55207 20.1981 4.69098 20.2408 4.85111L21.9738 10.6932C21.999 10.781 22.0061 10.873 21.9947 10.9637C21.9833 11.0543 21.9536 11.1417 21.9073 11.2205C21.8611 11.2993 21.7993 11.3679 21.7258 11.4221C21.6522 11.4763 21.5684 11.515 21.4794 11.5358L18.3365 12.2661" stroke="#182A37" stroke-width="1.25" stroke-miterlimit="10"/>
<path d="M5.64673 10.1455V18.5913C5.64578 19.1655 5.8647 19.7182 6.25853 20.1361C6.65237 20.554 7.19123 20.8052 7.76448 20.8382C9.11654 21.0859 10.4878 21.2137 11.8624 21.2202H12.118C13.4931 21.2071 14.8644 21.0727 16.2158 20.8185C16.7886 20.7848 17.3268 20.5333 17.72 20.1155C18.1133 19.6977 18.3318 19.1453 18.3308 18.5716V10.1455" stroke="#182A37" stroke-width="1.25" stroke-miterlimit="10" stroke-linecap="round"/>
<path d="M14.6122 2.00049C14.6237 2.35202 14.5644 2.70229 14.4378 3.03044C14.3112 3.3586 14.1199 3.65795 13.8753 3.91069C13.6307 4.16343 13.3378 4.3644 13.014 4.50166C12.6901 4.63891 12.342 4.70963 11.9903 4.70963C11.6385 4.70963 11.2904 4.63891 10.9666 4.50166C10.6427 4.3644 10.3498 4.16343 10.1052 3.91069C9.86059 3.65795 9.66931 3.3586 9.54273 3.03044C9.41614 2.70229 9.35684 2.35202 9.36835 2.00049" stroke="#182A37" stroke-width="1.25" stroke-miterlimit="10"/>
</svg>
