<svg width="50" height="50" viewBox="0 0 50 50" fill="none" xmlns="http://www.w3.org/2000/svg">
<path d="M16.7948 35.3288L18.9332 22.7801H22.3536L20.2136 35.3288H16.7948ZM32.5711 23.0506C31.8936 22.7964 30.8317 22.5236 29.5057 22.5236C26.1258 22.5236 23.7452 24.2255 23.7248 26.6648C23.7058 28.468 25.4245 29.4739 26.7219 30.0741C28.0533 30.6894 28.5008 31.0816 28.4944 31.6307C28.4859 32.472 27.4312 32.8561 26.448 32.8561C25.0791 32.8561 24.3518 32.6659 23.2285 32.1975L22.7876 31.9981L22.3076 34.8072C23.1066 35.1577 24.5838 35.461 26.1178 35.4768C29.7133 35.4768 32.0474 33.7942 32.0739 31.1893C32.0867 29.7617 31.1755 28.6755 29.2021 27.7798C28.0066 27.1993 27.2744 26.8119 27.2821 26.2241C27.2821 25.7025 27.9019 25.1447 29.2411 25.1447C30.3594 25.1273 31.1698 25.3713 31.8011 25.6255L32.1076 25.7703L32.5711 23.0506ZM41.373 22.7799H38.7301C37.9114 22.7799 37.2985 23.0034 36.9391 23.8205L31.8592 35.3205H35.451C35.451 35.3205 36.0381 33.7743 36.1709 33.4348C36.5634 33.4348 40.0526 33.4402 40.5514 33.4402C40.6537 33.8795 40.9676 35.3205 40.9676 35.3205H44.1414L41.373 22.7795V22.7799ZM37.1796 30.8831C37.4626 30.1601 38.5424 27.3752 38.5424 27.3752C38.5223 27.4086 38.8233 26.6486 38.9959 26.1775L39.2271 27.2594C39.2271 27.2594 39.882 30.2548 40.0189 30.8829H37.1796V30.8831ZM13.8912 22.7799L10.5425 31.3376L10.1858 29.5986C9.56232 27.5938 7.62008 25.4218 5.44873 24.3345L8.51072 35.3088L12.1296 35.3048L17.5145 22.7798L13.8912 22.7797" fill="#0E4595"/>
<path d="M7.41805 22.7795H1.9026L1.85889 23.0406C6.14985 24.0793 8.98902 26.5895 10.1679 29.606L8.96857 23.8393C8.76158 23.0447 8.16107 22.8076 7.41818 22.7799" fill="#F2AE14"/>
</svg>
